<?xml version="1.0" standalone="no"?>
<!DOCTYPE svg PUBLIC "-//W3C//DTD SVG 20010904//EN"
 "http://www.w3.org/TR/2001/REC-SVG-20010904/DTD/svg10.dtd">
<svg version="1.0" xmlns="http://www.w3.org/2000/svg"
 width="506.000000pt" height="551.000000pt" viewBox="0 0 506.000000 551.000000"
 preserveAspectRatio="xMidYMid meet">
<g transform="translate(0.000000,551.000000) scale(0.050000,-0.050000)"
fill="#000000" stroke="none">
<path d="M3920 7860 c-150 -10 -233 -26 -290 -55 -44 -22 -131 -51 -194 -64
-62 -13 -134 -39 -160 -59 -25 -20 -73 -45 -106 -56 -146 -50 -512 -330 -660
-507 -150 -179 -230 -285 -230 -305 0 -12 -17 -40 -37 -63 -20 -22 -49 -72
-63 -111 -15 -38 -43 -91 -62 -116 -20 -26 -46 -98 -59 -160 -13 -63 -41 -149
-63 -192 -29 -56 -44 -146 -58 -335 -24 -339 4 -742 58 -849 22 -43 50 -129
63 -192 13 -62 39 -134 59 -160 19 -25 47 -77 62 -116 14 -38 43 -89 63 -111
20 -23 37 -51 37 -63 0 -20 79 -126 228 -303 147 -176 518 -460 662 -509 33
-11 78 -35 100 -55 22 -19 94 -46 160 -59 66 -14 155 -42 198 -64 172 -87 971
-88 1182 0 55 22 147 51 205 64 57 13 125 39 150 58 25 19 88 50 140 70 52 19
95 43 95 52 0 10 18 23 40 30 22 7 67 36 101 64 94 79 129 52 732 -551 l551
-552 135 -8 c197 -11 269 61 258 259 l-8 134 -546 547 c-582 583 -635 651
-563 727 22 23 40 53 40 65 0 12 23 49 51 82 27 33 60 90 73 127 12 36 38 89
57 117 20 27 49 99 66 160 17 60 45 149 63 199 18 49 38 168 45 264 l11 174
-70 70 c-88 88 -186 109 -304 64 -92 -35 -176 -227 -232 -529 -11 -58 -36
-130 -57 -160 -21 -29 -48 -87 -62 -128 -13 -41 -33 -80 -43 -86 -11 -7 -42
-47 -68 -90 -50 -78 -403 -439 -430 -439 -8 0 -48 -27 -90 -60 -42 -33 -90
-60 -108 -60 -18 0 -65 -22 -104 -49 -277 -188 -1219 -191 -1435 -5 -18 16
-63 38 -99 50 -68 23 -98 44 -305 211 -165 134 -389 406 -439 533 -15 39 -42
93 -60 120 -178 269 -178 1133 0 1400 18 28 45 82 60 120 50 127 274 399 439
533 207 167 237 188 305 211 36 12 81 34 99 50 133 115 840 195 1037 117 53
-21 169 -40 284 -46 l193 -10 72 77 c130 142 62 376 -122 420 -31 7 -96 31
-143 52 -55 24 -168 45 -310 57 -243 20 -280 20 -594 -1z"/>
<path d="M6235 7788 c-38 -39 -81 -109 -94 -155 -13 -46 -39 -105 -58 -133
-18 -27 -47 -85 -65 -128 -24 -60 -50 -86 -112 -110 -44 -18 -95 -44 -112 -59
-18 -14 -75 -39 -128 -55 -270 -81 -280 -290 -18 -368 45 -13 105 -40 132 -58
28 -18 84 -49 125 -67 52 -24 86 -58 110 -110 18 -41 49 -97 67 -125 18 -27
45 -87 58 -132 78 -259 288 -255 361 7 14 48 40 107 58 131 19 24 46 76 61
114 31 78 67 112 139 130 27 7 72 29 100 49 28 20 88 48 133 61 255 76 253
281 -2 360 -44 13 -102 39 -130 57 -27 18 -85 47 -128 65 -59 24 -86 51 -110
110 -18 43 -47 101 -65 128 -19 28 -45 87 -58 133 -22 76 -141 227 -179 227
-8 0 -47 -32 -85 -72z"/>
</g>
</svg>
